<svg width="161" height="42" viewBox="0 0 161 42" fill="none" xmlns="http://www.w3.org/2000/svg">
<path d="M44.1536 0H22.0673C15.9684 0 10.6129 1.53502 10.1055 3.42857L0.918686 37.7143C0.411311 39.6078 4.94418 41.1429 11.0431 41.1429H33.1294C39.2283 41.1429 44.5838 39.6078 45.0912 37.7143L54.278 3.42857C54.7854 1.53502 50.2525 0 44.1536 0Z" fill="#DE3831"/>
<path d="M78.6758 10.4118C78.6758 10.7242 78.5906 11.0082 78.4203 11.2637C78.2499 11.5051 78.0582 11.6897 77.8452 11.8175C77.4903 11.5761 77.0856 11.3631 76.6313 11.1785C76.1912 10.994 75.6658 10.9017 75.0553 10.9017C74.2886 10.9017 73.6284 11.065 73.0747 11.3915C72.5352 11.7181 72.1163 12.2008 71.8182 12.8397C71.52 13.4644 71.3709 14.224 71.3709 15.1185C71.3709 16.4957 71.7117 17.5393 72.3932 18.2492C73.0889 18.9591 74.026 19.314 75.2044 19.314C75.8291 19.314 76.3615 19.2289 76.8017 19.0585C77.2418 18.8881 77.6465 18.6893 78.0156 18.4622C78.2286 18.6183 78.399 18.8242 78.5267 19.0798C78.6687 19.3211 78.7397 19.6051 78.7397 19.9317C78.7397 20.2156 78.6616 20.4783 78.5055 20.7196C78.3635 20.9468 78.115 21.1456 77.7601 21.316C77.4903 21.4579 77.1069 21.5928 76.61 21.7206C76.1273 21.8626 75.5239 21.9336 74.7998 21.9336C73.5503 21.9336 72.4145 21.6922 71.3922 21.2095C70.37 20.7125 69.5536 19.9601 68.943 18.952C68.3467 17.9439 68.0486 16.6661 68.0486 15.1185C68.0486 13.6419 68.3396 12.3996 68.9218 11.3915C69.5181 10.3693 70.3132 9.59546 71.307 9.07013C72.3151 8.5448 73.4154 8.28214 74.6081 8.28214C75.4458 8.28214 76.1699 8.38152 76.7804 8.58029C77.3909 8.76487 77.8594 9.02044 78.186 9.34699C78.5126 9.65935 78.6758 10.0143 78.6758 10.4118ZM90.6362 16.4602C90.6362 17.5677 90.4161 18.5331 89.9759 19.3566C89.5358 20.1659 88.9111 20.7906 88.1018 21.2308C87.2925 21.6709 86.3412 21.891 85.248 21.891C84.1547 21.891 83.2035 21.678 82.3942 21.2521C81.5849 20.8119 80.9602 20.1872 80.52 19.3779C80.0799 18.5544 79.8598 17.5819 79.8598 16.4602C79.8598 15.3528 80.0799 14.3944 80.52 13.5851C80.9744 12.7758 81.6062 12.1511 82.4155 11.711C83.239 11.2566 84.1831 11.0295 85.248 11.0295C86.327 11.0295 87.2712 11.2566 88.0805 11.711C88.8898 12.1511 89.5145 12.7829 89.9546 13.6064C90.409 14.4157 90.6362 15.367 90.6362 16.4602ZM85.248 13.5212C84.5807 13.5212 84.0482 13.7768 83.6507 14.2879C83.2674 14.7991 83.0757 15.5232 83.0757 16.4602C83.0757 17.4115 83.2674 18.1427 83.6507 18.6538C84.034 19.165 84.5665 19.4205 85.248 19.4205C85.9437 19.4205 86.4761 19.165 86.8453 18.6538C87.2286 18.1285 87.4203 17.3973 87.4203 16.4602C87.4203 15.5374 87.2286 14.8203 86.8453 14.3092C86.4619 13.7839 85.9295 13.5212 85.248 13.5212ZM101.905 16.9501H98.7743V14.9268C98.7743 14.4299 98.6252 14.0749 98.3271 13.862C98.0431 13.6348 97.6882 13.5212 97.2622 13.5212C96.9499 13.5212 96.6659 13.5709 96.4103 13.6703C96.1548 13.7555 95.9418 13.8478 95.7714 13.9472V16.9501H92.6407V13.6277C92.6407 13.2728 92.7117 12.9817 92.8537 12.7545C93.0099 12.5132 93.2371 12.3002 93.5352 12.1156C93.9896 11.7891 94.5575 11.5264 95.239 11.3276C95.9205 11.1288 96.6304 11.0295 97.3687 11.0295C98.0502 11.0295 98.6891 11.1359 99.2854 11.3489C99.8818 11.5619 100.4 11.8884 100.84 12.3286C100.954 12.4138 101.06 12.5061 101.16 12.6054C101.259 12.6906 101.337 12.79 101.394 12.9036C101.536 13.1308 101.657 13.3863 101.756 13.6703C101.855 13.9543 101.905 14.2382 101.905 14.5222V16.9501ZM108.039 16.9501H104.887V14.9268C104.887 14.4299 104.752 14.0749 104.482 13.862C104.212 13.6348 103.857 13.5212 103.417 13.5212C103.091 13.5212 102.778 13.5851 102.48 13.7129C102.182 13.8407 101.933 14.004 101.735 14.2027L100.073 12.3712C100.542 12.0162 101.074 11.7039 101.671 11.4341C102.267 11.1643 102.998 11.0295 103.864 11.0295C104.603 11.0295 105.284 11.1572 105.909 11.4128C106.548 11.6684 107.059 12.073 107.442 12.6267C107.84 13.1805 108.039 13.9117 108.039 14.8203V16.9501ZM95.7714 15.9704V21.5502C95.6436 21.5786 95.452 21.6141 95.1964 21.6567C94.9408 21.6993 94.664 21.7206 94.3658 21.7206C93.7695 21.7206 93.3294 21.6141 93.0454 21.4012C92.7756 21.1882 92.6407 20.8048 92.6407 20.2511V15.9704H95.7714ZM101.905 15.9704V21.5502C101.777 21.5786 101.586 21.6141 101.33 21.6567C101.074 21.6993 100.798 21.7206 100.499 21.7206C99.9031 21.7206 99.4629 21.6141 99.179 21.4012C98.9092 21.1882 98.7743 20.8048 98.7743 20.2511V15.9704H101.905ZM108.039 15.9704V21.5502C107.897 21.5786 107.698 21.6141 107.442 21.6567C107.187 21.6993 106.917 21.7206 106.633 21.7206C106.022 21.7206 105.575 21.6141 105.291 21.4012C105.021 21.1882 104.887 20.8048 104.887 20.2511V15.9704H108.039ZM115.554 21.8697C115.028 21.8697 114.553 21.8058 114.127 21.678C113.701 21.5502 113.325 21.4012 112.998 21.2308V18.5686C113.254 18.7816 113.552 18.9733 113.892 19.1437C114.233 19.2998 114.631 19.3779 115.085 19.3779C115.866 19.3779 116.469 19.1295 116.895 18.6325C117.335 18.1356 117.556 17.3902 117.556 16.3963C117.556 15.7148 117.456 15.1682 117.257 14.7565C117.073 14.3305 116.803 14.0182 116.448 13.8194C116.093 13.6206 115.674 13.5212 115.192 13.5212C114.851 13.5212 114.553 13.5638 114.297 13.649C114.042 13.72 113.821 13.8052 113.637 13.9046V20.4428H110.506V13.4786C110.506 13.1237 110.577 12.8326 110.719 12.6054C110.875 12.3641 111.095 12.1511 111.379 11.9665C111.805 11.6968 112.345 11.4767 112.998 11.3063C113.651 11.1217 114.382 11.0295 115.192 11.0295C116.285 11.0295 117.25 11.2211 118.088 11.6045C118.926 11.9736 119.579 12.5558 120.047 13.3508C120.53 14.1317 120.771 15.1469 120.771 16.3963C120.771 17.6032 120.544 18.6112 120.09 19.4205C119.636 20.2298 119.018 20.8403 118.237 21.2521C117.456 21.6638 116.562 21.8697 115.554 21.8697ZM110.506 19.6335H113.637V25.3624C113.509 25.405 113.317 25.4476 113.062 25.4902C112.806 25.5328 112.529 25.5541 112.231 25.5541C111.635 25.5541 111.195 25.4476 110.911 25.2346C110.641 25.0217 110.506 24.6383 110.506 24.0846V19.6335ZM126.993 19.5696C127.32 19.5696 127.639 19.5341 127.952 19.4631C128.278 19.3921 128.513 19.314 128.654 19.2289V17.1843L126.844 17.3334C126.362 17.376 125.978 17.4825 125.694 17.6529C125.424 17.8232 125.29 18.0788 125.29 18.4196C125.29 18.7745 125.424 19.0585 125.694 19.2714C125.964 19.4702 126.397 19.5696 126.993 19.5696ZM126.866 11.0295C128.328 11.0295 129.499 11.3418 130.38 11.9665C131.26 12.5771 131.7 13.5283 131.7 14.8203V19.6548C131.7 20.0097 131.608 20.3008 131.423 20.528C131.239 20.7409 131.011 20.9255 130.742 21.0817C130.316 21.3373 129.783 21.536 129.144 21.678C128.52 21.82 127.803 21.891 126.993 21.891C125.545 21.891 124.388 21.6141 123.522 21.0604C122.67 20.4925 122.244 19.6477 122.244 18.526C122.244 17.5606 122.542 16.8223 123.139 16.3111C123.735 15.7858 124.622 15.4664 125.801 15.3528L128.654 15.0546V14.7991C128.654 14.3021 128.463 13.9472 128.079 13.7342C127.696 13.5212 127.164 13.4147 126.482 13.4147C125.943 13.4147 125.41 13.4786 124.885 13.6064C124.36 13.7342 123.891 13.8904 123.479 14.0749C123.309 13.9472 123.167 13.7697 123.053 13.5425C122.94 13.3154 122.883 13.074 122.883 12.8184C122.883 12.2221 123.202 11.7891 123.841 11.5193C124.253 11.3631 124.729 11.2424 125.268 11.1572C125.822 11.0721 126.354 11.0295 126.866 11.0295ZM143.908 16.9501H140.777V15.0546C140.777 14.5151 140.621 14.1246 140.308 13.8833C139.996 13.6419 139.591 13.5212 139.094 13.5212C138.739 13.5212 138.413 13.5638 138.115 13.649C137.817 13.7342 137.54 13.8407 137.284 13.9685V16.9501H134.153V13.6277C134.153 13.2728 134.224 12.9817 134.366 12.7545C134.523 12.5132 134.75 12.3002 135.048 12.1156C135.502 11.8033 136.077 11.5477 136.773 11.3489C137.483 11.1359 138.264 11.0295 139.116 11.0295C140.649 11.0295 141.828 11.3702 142.651 12.0517C143.489 12.719 143.908 13.6845 143.908 14.9481V16.9501ZM137.284 15.9704V21.5502C137.156 21.5786 136.965 21.6141 136.709 21.6567C136.454 21.6993 136.177 21.7206 135.879 21.7206C135.282 21.7206 134.842 21.6141 134.558 21.4012C134.288 21.1882 134.153 20.8048 134.153 20.2511V15.9704H137.284ZM143.908 15.9704V21.5502C143.78 21.5786 143.588 21.6141 143.333 21.6567C143.077 21.6993 142.8 21.7206 142.502 21.7206C141.906 21.7206 141.465 21.6141 141.182 21.4012C140.912 21.1882 140.777 20.8048 140.777 20.2511V15.9704H143.908ZM147.837 19.0372C147.624 18.5686 147.383 18.0007 147.113 17.3334C146.843 16.6661 146.566 15.8781 146.282 14.9694C145.998 14.0608 145.7 13.0101 145.388 11.8175C145.558 11.6329 145.785 11.4767 146.069 11.3489C146.367 11.2069 146.687 11.1359 147.028 11.1359C147.468 11.1359 147.83 11.2282 148.114 11.4128C148.398 11.5974 148.611 11.9452 148.753 12.4564C149.065 13.4928 149.384 14.5222 149.711 15.5445C150.052 16.5667 150.393 17.6032 150.733 18.6538H150.818C151.06 18.0149 151.301 17.2908 151.543 16.4815C151.798 15.6722 152.032 14.8345 152.245 13.9685C152.473 13.1024 152.657 12.2718 152.799 11.4767C152.998 11.3773 153.211 11.2992 153.438 11.2424C153.665 11.1714 153.899 11.1359 154.141 11.1359C154.581 11.1359 154.957 11.2353 155.27 11.4341C155.582 11.6187 155.738 11.9381 155.738 12.3925C155.738 12.79 155.681 13.2799 155.568 13.862C155.454 14.4441 155.291 15.0759 155.078 15.7574C154.879 16.4247 154.645 17.1133 154.375 17.8232C154.12 18.5189 153.843 19.1934 153.544 19.8465C153.246 20.4996 152.948 21.0888 152.65 21.6141C151.883 22.9487 151.173 23.9426 150.52 24.5957C149.881 25.263 149.25 25.5967 148.625 25.5967C148.114 25.5967 147.688 25.4405 147.347 25.1282C147.02 24.83 146.829 24.4395 146.772 23.9568C147.07 23.687 147.383 23.3818 147.709 23.041C148.036 22.7145 148.348 22.3595 148.646 21.9762C148.959 21.607 149.228 21.2379 149.455 20.8687C149.214 20.7977 148.959 20.6416 148.689 20.4002C148.433 20.1588 148.149 19.7045 147.837 19.0372Z" fill="white"/>
<path d="M67.377 29.0596H68.3217L69.7616 31.5653H69.8208L71.2607 29.0596H72.2054L70.2057 32.4077V34.5715H69.3767V32.4077L67.377 29.0596ZM73.9864 34.655C73.5988 34.655 73.2606 34.5662 72.9717 34.3885C72.6829 34.2109 72.4586 33.9624 72.2989 33.643C72.1392 33.3236 72.0594 32.9504 72.0594 32.5234C72.0594 32.0946 72.1392 31.7196 72.2989 31.3984C72.4586 31.0772 72.6829 30.8278 72.9717 30.6502C73.2606 30.4725 73.5988 30.3837 73.9864 30.3837C74.3739 30.3837 74.7122 30.4725 75.001 30.6502C75.2899 30.8278 75.5142 31.0772 75.6739 31.3984C75.8336 31.7196 75.9134 32.0946 75.9134 32.5234C75.9134 32.9504 75.8336 33.3236 75.6739 33.643C75.5142 33.9624 75.2899 34.2109 75.001 34.3885C74.7122 34.5662 74.3739 34.655 73.9864 34.655ZM73.9891 33.9794C74.2403 33.9794 74.4484 33.913 74.6135 33.7803C74.7785 33.6475 74.9006 33.4708 74.9795 33.2501C75.0602 33.0294 75.1006 32.7862 75.1006 32.5207C75.1006 32.2569 75.0602 32.0147 74.9795 31.794C74.9006 31.5715 74.7785 31.393 74.6135 31.2584C74.4484 31.1239 74.2403 31.0566 73.9891 31.0566C73.7361 31.0566 73.5262 31.1239 73.3593 31.2584C73.1942 31.393 73.0713 31.5715 72.9906 31.794C72.9116 32.0147 72.8721 32.2569 72.8721 32.5207C72.8721 32.7862 72.9116 33.0294 72.9906 33.2501C73.0713 33.4708 73.1942 33.6475 73.3593 33.7803C73.5262 33.913 73.7361 33.9794 73.9891 33.9794ZM79.4304 32.8571V30.4376H80.2378V34.5715H79.4465V33.8556H79.4035C79.3084 34.0763 79.1559 34.2602 78.9459 34.4074C78.7378 34.5527 78.4785 34.6254 78.1681 34.6254C77.9026 34.6254 77.6675 34.567 77.463 34.4504C77.2602 34.332 77.1005 34.1571 76.9839 33.9256C76.8691 33.6941 76.8117 33.408 76.8117 33.067V30.4376H77.6164V32.9702C77.6164 33.2519 77.6944 33.4761 77.8505 33.643C78.0066 33.8099 78.2094 33.8933 78.4588 33.8933C78.6095 33.8933 78.7593 33.8556 78.9083 33.7803C79.059 33.7049 79.1837 33.591 79.2824 33.4385C79.3828 33.2859 79.4322 33.0922 79.4304 32.8571ZM82.1218 29.0596V29.5763C82.1218 29.7288 82.0931 29.8894 82.0357 30.0581C81.98 30.2249 81.9011 30.3855 81.7988 30.5398C81.6965 30.6941 81.5763 30.8269 81.4382 30.9382L81.0398 30.6529C81.1457 30.4986 81.2372 30.3344 81.3144 30.1603C81.3933 29.9863 81.4328 29.7943 81.4328 29.5844V29.0596H82.1218ZM82.7771 34.5715V30.4376H83.5549V31.0943H83.598C83.6734 30.8718 83.8061 30.6968 83.9963 30.5694C84.1883 30.4403 84.4054 30.3757 84.6476 30.3757C84.6979 30.3757 84.7571 30.3775 84.8253 30.381C84.8953 30.3846 84.95 30.3891 84.9894 30.3945V31.1642C84.9572 31.1553 84.8997 31.1454 84.8172 31.1346C84.7347 31.1221 84.6521 31.1158 84.5696 31.1158C84.3794 31.1158 84.2098 31.1562 84.0609 31.2369C83.9138 31.3159 83.7972 31.4262 83.711 31.5679C83.6249 31.7079 83.5819 31.8676 83.5819 32.047V34.5715H82.7771ZM87.3195 34.655C86.9122 34.655 86.5614 34.5679 86.2672 34.3939C85.9747 34.2181 85.7486 33.9714 85.589 33.6538C85.4311 33.3344 85.3521 32.9603 85.3521 32.5315C85.3521 32.108 85.4311 31.7348 85.589 31.4118C85.7486 31.0889 85.9711 30.8368 86.2564 30.6556C86.5435 30.4743 86.879 30.3837 87.263 30.3837C87.4963 30.3837 87.7223 30.4223 87.9412 30.4995C88.1601 30.5766 88.3566 30.6977 88.5306 30.8628C88.7047 31.0279 88.8419 31.2423 88.9424 31.506C89.0429 31.768 89.0931 32.0865 89.0931 32.4615V32.7468H85.807V32.1439H88.3046C88.3046 31.9322 88.2615 31.7447 88.1754 31.5814C88.0893 31.4163 87.9681 31.2862 87.812 31.1912C87.6577 31.0961 87.4765 31.0485 87.2684 31.0485C87.0423 31.0485 86.8449 31.1041 86.6763 31.2154C86.5094 31.3248 86.3802 31.4684 86.2887 31.646C86.199 31.8218 86.1541 32.0129 86.1541 32.2193V32.6903C86.1541 32.9666 86.2026 33.2016 86.2995 33.3954C86.3982 33.5892 86.5354 33.7372 86.7113 33.8395C86.8871 33.94 87.0925 33.9902 87.3276 33.9902C87.4801 33.9902 87.6192 33.9687 87.7448 33.9256C87.8704 33.8807 87.9789 33.8144 88.0704 33.7264C88.1619 33.6385 88.2319 33.53 88.2803 33.4008L89.042 33.538C88.981 33.7623 88.8716 33.9588 88.7137 34.1275C88.5576 34.2943 88.3611 34.4244 88.1242 34.5177C87.8892 34.6092 87.621 34.655 87.3195 34.655ZM92.888 34.5715L91.6715 30.4376H92.5031L93.3132 33.4734H93.3536L94.1664 30.4376H94.998L95.8055 33.46H95.8458L96.6506 30.4376H97.4822L96.2684 34.5715H95.4475L94.6078 31.5868H94.5459L93.7062 34.5715H92.888ZM99.9018 34.655C99.4945 34.655 99.1437 34.5679 98.8494 34.3939C98.557 34.2181 98.3309 33.9714 98.1712 33.6538C98.0133 33.3344 97.9344 32.9603 97.9344 32.5315C97.9344 32.108 98.0133 31.7348 98.1712 31.4118C98.3309 31.0889 98.5534 30.8368 98.8387 30.6556C99.1257 30.4743 99.4613 30.3837 99.8452 30.3837C100.078 30.3837 100.305 30.4223 100.523 30.4995C100.742 30.5766 100.939 30.6977 101.113 30.8628C101.287 31.0279 101.424 31.2423 101.525 31.506C101.625 31.768 101.675 32.0865 101.675 32.4615V32.7468H98.3892V32.1439H100.887C100.887 31.9322 100.844 31.7447 100.758 31.5814C100.671 31.4163 100.55 31.2862 100.394 31.1912C100.24 31.0961 100.059 31.0485 99.8506 31.0485C99.6245 31.0485 99.4272 31.1041 99.2585 31.2154C99.0916 31.3248 98.9625 31.4684 98.871 31.646C98.7812 31.8218 98.7364 32.0129 98.7364 32.2193V32.6903C98.7364 32.9666 98.7848 33.2016 98.8817 33.3954C98.9804 33.5892 99.1177 33.7372 99.2935 33.8395C99.4693 33.94 99.6748 33.9902 99.9098 33.9902C100.062 33.9902 100.201 33.9687 100.327 33.9256C100.453 33.8807 100.561 33.8144 100.653 33.7264C100.744 33.6385 100.814 33.53 100.863 33.4008L101.624 33.538C101.563 33.7623 101.454 33.9588 101.296 34.1275C101.14 34.2943 100.943 34.4244 100.706 34.5177C100.471 34.6092 100.203 34.655 99.9018 34.655ZM103.373 29.0596V34.5715H102.568V29.0596H103.373ZM106.197 34.655C105.797 34.655 105.452 34.5644 105.163 34.3831C104.876 34.2001 104.656 33.948 104.501 33.6269C104.347 33.3057 104.27 32.9379 104.27 32.5234C104.27 32.1035 104.349 31.733 104.507 31.4118C104.665 31.0889 104.887 30.8368 105.174 30.6556C105.461 30.4743 105.799 30.3837 106.189 30.3837C106.503 30.3837 106.783 30.442 107.029 30.5587C107.274 30.6735 107.473 30.835 107.623 31.0431C107.776 31.2513 107.866 31.4944 107.895 31.7725H107.112C107.069 31.5787 106.97 31.4118 106.816 31.2719C106.663 31.1319 106.459 31.062 106.202 31.062C105.978 31.062 105.782 31.1212 105.613 31.2396C105.446 31.3562 105.316 31.5231 105.223 31.7402C105.129 31.9555 105.083 32.2103 105.083 32.5045C105.083 32.806 105.128 33.0662 105.22 33.285C105.311 33.5039 105.441 33.6735 105.607 33.7937C105.776 33.9139 105.974 33.974 106.202 33.974C106.355 33.974 106.493 33.9462 106.617 33.8906C106.742 33.8332 106.847 33.7516 106.932 33.6457C107.018 33.5398 107.078 33.4124 107.112 33.2635H107.895C107.866 33.5309 107.779 33.7695 107.634 33.9794C107.489 34.1894 107.294 34.3544 107.05 34.4746C106.808 34.5949 106.523 34.655 106.197 34.655ZM110.497 34.655C110.11 34.655 109.771 34.5662 109.482 34.3885C109.194 34.2109 108.969 33.9624 108.81 33.643C108.65 33.3236 108.57 32.9504 108.57 32.5234C108.57 32.0946 108.65 31.7196 108.81 31.3984C108.969 31.0772 109.194 30.8278 109.482 30.6502C109.771 30.4725 110.11 30.3837 110.497 30.3837C110.885 30.3837 111.223 30.4725 111.512 30.6502C111.801 30.8278 112.025 31.0772 112.185 31.3984C112.344 31.7196 112.424 32.0946 112.424 32.5234C112.424 32.9504 112.344 33.3236 112.185 33.643C112.025 33.9624 111.801 34.2109 111.512 34.3885C111.223 34.5662 110.885 34.655 110.497 34.655ZM110.5 33.9794C110.751 33.9794 110.959 33.913 111.124 33.7803C111.289 33.6475 111.411 33.4708 111.49 33.2501C111.571 33.0294 111.611 32.7862 111.611 32.5207C111.611 32.2569 111.571 32.0147 111.49 31.794C111.411 31.5715 111.289 31.393 111.124 31.2584C110.959 31.1239 110.751 31.0566 110.5 31.0566C110.247 31.0566 110.037 31.1239 109.87 31.2584C109.705 31.393 109.582 31.5715 109.501 31.794C109.422 32.0147 109.383 32.2569 109.383 32.5207C109.383 32.7862 109.422 33.0294 109.501 33.2501C109.582 33.4708 109.705 33.6475 109.87 33.7803C110.037 33.913 110.247 33.9794 110.5 33.9794ZM113.322 34.5715V30.4376H114.095V31.1104H114.146C114.232 30.8825 114.373 30.7049 114.568 30.5775C114.764 30.4483 114.998 30.3837 115.271 30.3837C115.547 30.3837 115.779 30.4483 115.965 30.5775C116.154 30.7067 116.293 30.8843 116.382 31.1104H116.426C116.524 30.8897 116.681 30.7139 116.897 30.5829C117.112 30.4501 117.368 30.3837 117.666 30.3837C118.041 30.3837 118.347 30.5013 118.584 30.7363C118.823 30.9714 118.942 31.3257 118.942 31.7994V34.5715H118.137V31.8748C118.137 31.5949 118.061 31.3921 117.908 31.2665C117.756 31.1409 117.574 31.0781 117.362 31.0781C117.1 31.0781 116.897 31.1589 116.751 31.3203C116.606 31.48 116.533 31.6855 116.533 31.9367V34.5715H115.731V31.8236C115.731 31.5993 115.661 31.419 115.521 31.2827C115.381 31.1463 115.199 31.0781 114.975 31.0781C114.822 31.0781 114.682 31.1185 114.552 31.1992C114.425 31.2782 114.322 31.3885 114.243 31.5303C114.166 31.672 114.127 31.8362 114.127 32.0228V34.5715H113.322ZM121.802 34.655C121.395 34.655 121.044 34.5679 120.75 34.3939C120.457 34.2181 120.231 33.9714 120.072 33.6538C119.914 33.3344 119.835 32.9603 119.835 32.5315C119.835 32.108 119.914 31.7348 120.072 31.4118C120.231 31.0889 120.454 30.8368 120.739 30.6556C121.026 30.4743 121.362 30.3837 121.746 30.3837C121.979 30.3837 122.205 30.4223 122.424 30.4995C122.643 30.5766 122.839 30.6977 123.013 30.8628C123.187 31.0279 123.325 31.2423 123.425 31.506C123.526 31.768 123.576 32.0865 123.576 32.4615V32.7468H120.29V32.1439H122.787C122.787 31.9322 122.744 31.7447 122.658 31.5814C122.572 31.4163 122.451 31.2862 122.295 31.1912C122.14 31.0961 121.959 31.0485 121.751 31.0485C121.525 31.0485 121.328 31.1041 121.159 31.2154C120.992 31.3248 120.863 31.4684 120.771 31.646C120.682 31.8218 120.637 32.0129 120.637 32.2193V32.6903C120.637 32.9666 120.685 33.2016 120.782 33.3954C120.881 33.5892 121.018 33.7372 121.194 33.8395C121.37 33.94 121.575 33.9902 121.81 33.9902C121.963 33.9902 122.102 33.9687 122.227 33.9256C122.353 33.8807 122.462 33.8144 122.553 33.7264C122.645 33.6385 122.715 33.53 122.763 33.4008L123.525 33.538C123.464 33.7623 123.354 33.9588 123.196 34.1275C123.04 34.2943 122.844 34.4244 122.607 34.5177C122.372 34.6092 122.104 34.655 121.802 34.655ZM128.404 30.4376V31.0835H126.146V30.4376H128.404ZM126.752 29.4471H127.556V33.3577C127.556 33.5138 127.58 33.6313 127.626 33.7103C127.673 33.7874 127.733 33.8404 127.807 33.8691C127.882 33.896 127.964 33.9095 128.052 33.9095C128.116 33.9095 128.173 33.905 128.221 33.896C128.27 33.887 128.307 33.8798 128.334 33.8745L128.48 34.5392C128.433 34.5572 128.367 34.5751 128.28 34.5931C128.194 34.6128 128.087 34.6236 127.957 34.6254C127.746 34.6289 127.548 34.5913 127.365 34.5123C127.182 34.4334 127.034 34.3114 126.921 34.1463C126.808 33.9812 126.752 33.774 126.752 33.5246V29.4471ZM130.991 34.655C130.604 34.655 130.266 34.5662 129.977 34.3885C129.688 34.2109 129.464 33.9624 129.304 33.643C129.144 33.3236 129.064 32.9504 129.064 32.5234C129.064 32.0946 129.144 31.7196 129.304 31.3984C129.464 31.0772 129.688 30.8278 129.977 30.6502C130.266 30.4725 130.604 30.3837 130.991 30.3837C131.379 30.3837 131.717 30.4725 132.006 30.6502C132.295 30.8278 132.519 31.0772 132.679 31.3984C132.839 31.7196 132.918 32.0946 132.918 32.5234C132.918 32.9504 132.839 33.3236 132.679 33.643C132.519 33.9624 132.295 34.2109 132.006 34.3885C131.717 34.5662 131.379 34.655 130.991 34.655ZM130.994 33.9794C131.245 33.9794 131.453 33.913 131.618 33.7803C131.783 33.6475 131.905 33.4708 131.984 33.2501C132.065 33.0294 132.106 32.7862 132.106 32.5207C132.106 32.2569 132.065 32.0147 131.984 31.794C131.905 31.5715 131.783 31.393 131.618 31.2584C131.453 31.1239 131.245 31.0566 130.994 31.0566C130.741 31.0566 130.531 31.1239 130.364 31.2584C130.199 31.393 130.076 31.5715 129.996 31.794C129.917 32.0147 129.877 32.2569 129.877 32.5207C129.877 32.7862 129.917 33.0294 129.996 33.2501C130.076 33.4708 130.199 33.6475 130.364 33.7803C130.531 33.913 130.741 33.9794 130.994 33.9794ZM135.887 34.5715V29.0596H136.692V31.1077H136.74C136.787 31.0216 136.854 30.922 136.942 30.809C137.03 30.6959 137.152 30.5973 137.308 30.5129C137.464 30.4268 137.67 30.3837 137.927 30.3837C138.261 30.3837 138.559 30.4681 138.821 30.6367C139.083 30.8054 139.288 31.0485 139.437 31.3661C139.588 31.6837 139.663 32.0659 139.663 32.5126C139.663 32.9594 139.589 33.3425 139.44 33.6618C139.291 33.9794 139.086 34.2243 138.826 34.3966C138.566 34.567 138.269 34.6523 137.935 34.6523C137.684 34.6523 137.478 34.6101 137.319 34.5258C137.161 34.4414 137.037 34.3428 136.947 34.2297C136.858 34.1167 136.789 34.0162 136.74 33.9283H136.673V34.5715H135.887ZM136.676 32.5045C136.676 32.7952 136.718 33.05 136.802 33.2689C136.886 33.4878 137.008 33.6592 137.168 33.783C137.328 33.905 137.523 33.966 137.755 33.966C137.995 33.966 138.196 33.9023 138.358 33.7749C138.519 33.6457 138.641 33.4708 138.724 33.2501C138.808 33.0294 138.85 32.7809 138.85 32.5045C138.85 32.2318 138.809 31.9869 138.726 31.7698C138.646 31.5527 138.524 31.3813 138.36 31.2557C138.199 31.1301 137.997 31.0673 137.755 31.0673C137.522 31.0673 137.324 31.1275 137.163 31.2477C137.003 31.3679 136.882 31.5356 136.799 31.751C136.717 31.9663 136.676 32.2175 136.676 32.5045ZM143.185 32.8571V30.4376H143.993V34.5715H143.201V33.8556H143.158C143.063 34.0763 142.911 34.2602 142.701 34.4074C142.493 34.5527 142.233 34.6254 141.923 34.6254C141.658 34.6254 141.422 34.567 141.218 34.4504C141.015 34.332 140.855 34.1571 140.739 33.9256C140.624 33.6941 140.567 33.408 140.567 33.067V30.4376H141.371V32.9702C141.371 33.2519 141.449 33.4761 141.605 33.643C141.762 33.8099 141.964 33.8933 142.214 33.8933C142.364 33.8933 142.514 33.8556 142.663 33.7803C142.814 33.7049 142.939 33.591 143.037 33.4385C143.138 33.2859 143.187 33.0922 143.185 32.8571ZM145.583 36.1218C145.462 36.1218 145.353 36.1119 145.254 36.0922C145.156 36.0742 145.082 36.0545 145.034 36.033L145.227 35.3736C145.375 35.413 145.506 35.4301 145.62 35.4247C145.735 35.4193 145.837 35.3763 145.924 35.2955C146.014 35.2148 146.093 35.0829 146.161 34.8999L146.261 34.6254L144.748 30.4376H145.61L146.657 33.6457H146.7L147.747 30.4376H148.61L146.907 35.1233C146.828 35.3386 146.727 35.5207 146.605 35.6696C146.483 35.8203 146.338 35.9334 146.169 36.0087C146.001 36.0841 145.805 36.1218 145.583 36.1218Z" fill="white"/>
</svg>
