<svg width="161" height="42" viewBox="0 0 161 42" fill="none" xmlns="http://www.w3.org/2000/svg">
<path d="M44.1536 0.42857H22.0673C15.9684 0.42857 10.6129 1.96359 10.1055 3.85714L0.918686 38.1429C0.411311 40.0364 4.94418 41.5714 11.0431 41.5714H33.1294C39.2283 41.5714 44.5838 40.0364 45.0912 38.1429L54.278 3.85714C54.7854 1.96359 50.2525 0.42857 44.1536 0.42857Z" fill="#DE3831"/>
<path d="M78.6758 10.8403C78.6758 11.1527 78.5906 11.4366 78.4203 11.6922C78.2499 11.9336 78.0582 12.1181 77.8452 12.2459C77.4903 12.0046 77.0856 11.7916 76.6313 11.607C76.1912 11.4224 75.6658 11.3301 75.0553 11.3301C74.2886 11.3301 73.6284 11.4934 73.0747 11.82C72.5352 12.1465 72.1163 12.6293 71.8182 13.2682C71.52 13.8929 71.3709 14.6525 71.3709 15.547C71.3709 16.9242 71.7117 17.9677 72.3932 18.6777C73.0889 19.3876 74.026 19.7425 75.2044 19.7425C75.8291 19.7425 76.3615 19.6573 76.8017 19.4869C77.2418 19.3166 77.6465 19.1178 78.0156 18.8906C78.2286 19.0468 78.399 19.2527 78.5267 19.5082C78.6687 19.7496 78.7397 20.0336 78.7397 20.3601C78.7397 20.6441 78.6616 20.9067 78.5055 21.1481C78.3635 21.3753 78.115 21.5741 77.7601 21.7444C77.4903 21.8864 77.1069 22.0213 76.61 22.1491C76.1273 22.2911 75.5239 22.3621 74.7998 22.3621C73.5503 22.3621 72.4145 22.1207 71.3922 21.6379C70.37 21.141 69.5536 20.3885 68.943 19.3805C68.3467 18.3724 68.0486 17.0946 68.0486 15.547C68.0486 14.0704 68.3396 12.828 68.9218 11.82C69.5181 10.7977 70.3132 10.0239 71.307 9.4986C72.3151 8.97327 73.4154 8.7106 74.6081 8.7106C75.4458 8.7106 76.1699 8.80999 76.7804 9.00876C77.3909 9.19334 77.8594 9.4489 78.186 9.77546C78.5126 10.0878 78.6758 10.4428 78.6758 10.8403ZM90.6362 16.8887C90.6362 17.9961 90.4161 18.9616 89.9759 19.7851C89.5358 20.5944 88.9111 21.2191 88.1018 21.6592C87.2925 22.0994 86.3412 22.3195 85.248 22.3195C84.1547 22.3195 83.2035 22.1065 82.3942 21.6805C81.5849 21.2404 80.9602 20.6157 80.52 19.8064C80.0799 18.9829 79.8598 18.0103 79.8598 16.8887C79.8598 15.7812 80.0799 14.8229 80.52 14.0136C80.9744 13.2043 81.6062 12.5796 82.4155 12.1394C83.239 11.6851 84.1831 11.4579 85.248 11.4579C86.327 11.4579 87.2712 11.6851 88.0805 12.1394C88.8898 12.5796 89.5145 13.2114 89.9546 14.0349C90.409 14.8442 90.6362 15.7954 90.6362 16.8887ZM85.248 13.9497C84.5807 13.9497 84.0482 14.2053 83.6507 14.7164C83.2674 15.2275 83.0757 15.9516 83.0757 16.8887C83.0757 17.84 83.2674 18.5712 83.6507 19.0823C84.034 19.5934 84.5665 19.849 85.248 19.849C85.9437 19.849 86.4761 19.5934 86.8453 19.0823C87.2286 18.557 87.4203 17.8258 87.4203 16.8887C87.4203 15.9658 87.2286 15.2488 86.8453 14.7377C86.4619 14.2124 85.9295 13.9497 85.248 13.9497ZM101.905 17.3785H98.7743V15.3553C98.7743 14.8584 98.6252 14.5034 98.3271 14.2904C98.0431 14.0633 97.6882 13.9497 97.2622 13.9497C96.9499 13.9497 96.6659 13.9994 96.4103 14.0988C96.1548 14.184 95.9418 14.2762 95.7714 14.3756V17.3785H92.6407V14.0562C92.6407 13.7012 92.7117 13.4102 92.8537 13.183C93.0099 12.9416 93.2371 12.7287 93.5352 12.5441C93.9896 12.2175 94.5575 11.9549 95.239 11.7561C95.9205 11.5573 96.6304 11.4579 97.3687 11.4579C98.0502 11.4579 98.6891 11.5644 99.2854 11.7774C99.8818 11.9904 100.4 12.3169 100.84 12.7571C100.954 12.8422 101.06 12.9345 101.16 13.0339C101.259 13.1191 101.337 13.2185 101.394 13.3321C101.536 13.5592 101.657 13.8148 101.756 14.0988C101.855 14.3827 101.905 14.6667 101.905 14.9507V17.3785ZM108.039 17.3785H104.887V15.3553C104.887 14.8584 104.752 14.5034 104.482 14.2904C104.212 14.0633 103.857 13.9497 103.417 13.9497C103.091 13.9497 102.778 14.0136 102.48 14.1414C102.182 14.2691 101.933 14.4324 101.735 14.6312L100.073 12.7996C100.542 12.4447 101.074 12.1323 101.671 11.8626C102.267 11.5928 102.998 11.4579 103.864 11.4579C104.603 11.4579 105.284 11.5857 105.909 11.8413C106.548 12.0968 107.059 12.5015 107.442 13.0552C107.84 13.6089 108.039 14.3401 108.039 15.2488V17.3785ZM95.7714 16.3989V21.9787C95.6436 22.0071 95.452 22.0426 95.1964 22.0852C94.9408 22.1278 94.664 22.1491 94.3658 22.1491C93.7695 22.1491 93.3294 22.0426 93.0454 21.8296C92.7756 21.6167 92.6407 21.2333 92.6407 20.6796V16.3989H95.7714ZM101.905 16.3989V21.9787C101.777 22.0071 101.586 22.0426 101.33 22.0852C101.074 22.1278 100.798 22.1491 100.499 22.1491C99.9031 22.1491 99.4629 22.0426 99.179 21.8296C98.9092 21.6167 98.7743 21.2333 98.7743 20.6796V16.3989H101.905ZM108.039 16.3989V21.9787C107.897 22.0071 107.698 22.0426 107.442 22.0852C107.187 22.1278 106.917 22.1491 106.633 22.1491C106.022 22.1491 105.575 22.0426 105.291 21.8296C105.021 21.6167 104.887 21.2333 104.887 20.6796V16.3989H108.039ZM115.554 22.2982C115.028 22.2982 114.553 22.2343 114.127 22.1065C113.701 21.9787 113.325 21.8296 112.998 21.6592V18.9971C113.254 19.2101 113.552 19.4018 113.892 19.5721C114.233 19.7283 114.631 19.8064 115.085 19.8064C115.866 19.8064 116.469 19.5579 116.895 19.061C117.335 18.5641 117.556 17.8187 117.556 16.8248C117.556 16.1433 117.456 15.5967 117.257 15.1849C117.073 14.759 116.803 14.4466 116.448 14.2479C116.093 14.0491 115.674 13.9497 115.192 13.9497C114.851 13.9497 114.553 13.9923 114.297 14.0775C114.042 14.1485 113.821 14.2337 113.637 14.333V20.8713H110.506V13.9071C110.506 13.5521 110.577 13.2611 110.719 13.0339C110.875 12.7925 111.095 12.5796 111.379 12.395C111.805 12.1252 112.345 11.9052 112.998 11.7348C113.651 11.5502 114.382 11.4579 115.192 11.4579C116.285 11.4579 117.25 11.6496 118.088 12.033C118.926 12.4021 119.579 12.9842 120.047 13.7793C120.53 14.5602 120.771 15.5754 120.771 16.8248C120.771 18.0316 120.544 19.0397 120.09 19.849C119.636 20.6583 119.018 21.2688 118.237 21.6805C117.456 22.0923 116.562 22.2982 115.554 22.2982ZM110.506 20.062H113.637V25.7909C113.509 25.8335 113.317 25.8761 113.062 25.9187C112.806 25.9613 112.529 25.9826 112.231 25.9826C111.635 25.9826 111.195 25.8761 110.911 25.6631C110.641 25.4501 110.506 25.0668 110.506 24.5131V20.062ZM126.993 19.9981C127.32 19.9981 127.639 19.9626 127.952 19.8916C128.278 19.8206 128.513 19.7425 128.654 19.6573V17.6128L126.844 17.7619C126.362 17.8045 125.978 17.911 125.694 18.0813C125.424 18.2517 125.29 18.5073 125.29 18.848C125.29 19.203 125.424 19.4869 125.694 19.6999C125.964 19.8987 126.397 19.9981 126.993 19.9981ZM126.866 11.4579C128.328 11.4579 129.499 11.7703 130.38 12.395C131.26 13.0055 131.7 13.9568 131.7 15.2488V20.0833C131.7 20.4382 131.608 20.7293 131.423 20.9564C131.239 21.1694 131.011 21.354 130.742 21.5102C130.316 21.7657 129.783 21.9645 129.144 22.1065C128.52 22.2485 127.803 22.3195 126.993 22.3195C125.545 22.3195 124.388 22.0426 123.522 21.4889C122.67 20.9209 122.244 20.0762 122.244 18.9545C122.244 17.989 122.542 17.2507 123.139 16.7396C123.735 16.2143 124.622 15.8948 125.801 15.7812L128.654 15.4831V15.2275C128.654 14.7306 128.463 14.3756 128.079 14.1627C127.696 13.9497 127.164 13.8432 126.482 13.8432C125.943 13.8432 125.41 13.9071 124.885 14.0349C124.36 14.1627 123.891 14.3188 123.479 14.5034C123.309 14.3756 123.167 14.1982 123.053 13.971C122.94 13.7438 122.883 13.5025 122.883 13.2469C122.883 12.6506 123.202 12.2175 123.841 11.9478C124.253 11.7916 124.729 11.6709 125.268 11.5857C125.822 11.5005 126.354 11.4579 126.866 11.4579ZM143.908 17.3785H140.777V15.4831C140.777 14.9436 140.621 14.5531 140.308 14.3117C139.996 14.0704 139.591 13.9497 139.094 13.9497C138.739 13.9497 138.413 13.9923 138.115 14.0775C137.817 14.1627 137.54 14.2691 137.284 14.3969V17.3785H134.153V14.0562C134.153 13.7012 134.224 13.4102 134.366 13.183C134.523 12.9416 134.75 12.7287 135.048 12.5441C135.502 12.2317 136.077 11.9762 136.773 11.7774C137.483 11.5644 138.264 11.4579 139.116 11.4579C140.649 11.4579 141.828 11.7987 142.651 12.4802C143.489 13.1475 143.908 14.113 143.908 15.3766V17.3785ZM137.284 16.3989V21.9787C137.156 22.0071 136.965 22.0426 136.709 22.0852C136.454 22.1278 136.177 22.1491 135.879 22.1491C135.282 22.1491 134.842 22.0426 134.558 21.8296C134.288 21.6167 134.153 21.2333 134.153 20.6796V16.3989H137.284ZM143.908 16.3989V21.9787C143.78 22.0071 143.588 22.0426 143.333 22.0852C143.077 22.1278 142.8 22.1491 142.502 22.1491C141.906 22.1491 141.465 22.0426 141.182 21.8296C140.912 21.6167 140.777 21.2333 140.777 20.6796V16.3989H143.908ZM147.837 19.4656C147.624 18.9971 147.383 18.4292 147.113 17.7619C146.843 17.0946 146.566 16.3066 146.282 15.3979C145.998 14.4892 145.7 13.4386 145.388 12.2459C145.558 12.0613 145.785 11.9052 146.069 11.7774C146.367 11.6354 146.687 11.5644 147.028 11.5644C147.468 11.5644 147.83 11.6567 148.114 11.8413C148.398 12.0259 148.611 12.3737 148.753 12.8848C149.065 13.9213 149.384 14.9507 149.711 15.9729C150.052 16.9952 150.393 18.0316 150.733 19.0823H150.818C151.06 18.4434 151.301 17.7193 151.543 16.91C151.798 16.1007 152.032 15.263 152.245 14.3969C152.473 13.5308 152.657 12.7003 152.799 11.9052C152.998 11.8058 153.211 11.7277 153.438 11.6709C153.665 11.5999 153.899 11.5644 154.141 11.5644C154.581 11.5644 154.957 11.6638 155.27 11.8626C155.582 12.0471 155.738 12.3666 155.738 12.8209C155.738 13.2185 155.681 13.7083 155.568 14.2904C155.454 14.8726 155.291 15.5044 155.078 16.1859C154.879 16.8532 154.645 17.5418 154.375 18.2517C154.12 18.9474 153.843 19.6218 153.544 20.2749C153.246 20.928 152.948 21.5173 152.65 22.0426C151.883 23.3772 151.173 24.3711 150.52 25.0242C149.881 25.6915 149.25 26.0252 148.625 26.0252C148.114 26.0252 147.688 25.869 147.347 25.5566C147.02 25.2585 146.829 24.868 146.772 24.3853C147.07 24.1155 147.383 23.8103 147.709 23.4695C148.036 23.1429 148.348 22.788 148.646 22.4046C148.959 22.0355 149.228 21.6663 149.455 21.2972C149.214 21.2262 148.959 21.07 148.689 20.8287C148.433 20.5873 148.149 20.133 147.837 19.4656Z" fill="#0A1F1A"/>
<path d="M67.377 29.488H68.3217L69.7616 31.9937H69.8208L71.2607 29.488H72.2054L70.2057 32.8361V35H69.3767V32.8361L67.377 29.488ZM73.9864 35.0834C73.5988 35.0834 73.2606 34.9946 72.9717 34.817C72.6829 34.6394 72.4586 34.3908 72.2989 34.0715C72.1392 33.7521 72.0594 33.3789 72.0594 32.9519C72.0594 32.523 72.1392 32.148 72.2989 31.8269C72.4586 31.5057 72.6829 31.2563 72.9717 31.0786C73.2606 30.901 73.5988 30.8122 73.9864 30.8122C74.3739 30.8122 74.7122 30.901 75.001 31.0786C75.2899 31.2563 75.5142 31.5057 75.6739 31.8269C75.8336 32.148 75.9134 32.523 75.9134 32.9519C75.9134 33.3789 75.8336 33.7521 75.6739 34.0715C75.5142 34.3908 75.2899 34.6394 75.001 34.817C74.7122 34.9946 74.3739 35.0834 73.9864 35.0834ZM73.9891 34.4079C74.2403 34.4079 74.4484 34.3415 74.6135 34.2087C74.7785 34.076 74.9006 33.8992 74.9795 33.6785C75.0602 33.4578 75.1006 33.2147 75.1006 32.9492C75.1006 32.6854 75.0602 32.4432 74.9795 32.2225C74.9006 32 74.7785 31.8215 74.6135 31.6869C74.4484 31.5523 74.2403 31.485 73.9891 31.485C73.7361 31.485 73.5262 31.5523 73.3593 31.6869C73.1942 31.8215 73.0713 32 72.9906 32.2225C72.9116 32.4432 72.8721 32.6854 72.8721 32.9492C72.8721 33.2147 72.9116 33.4578 72.9906 33.6785C73.0713 33.8992 73.1942 34.076 73.3593 34.2087C73.5262 34.3415 73.7361 34.4079 73.9891 34.4079ZM79.4304 33.2856V30.866H80.2378V35H79.4465V34.2841H79.4035C79.3084 34.5048 79.1559 34.6887 78.9459 34.8358C78.7378 34.9812 78.4785 35.0538 78.1681 35.0538C77.9026 35.0538 77.6675 34.9955 77.463 34.8789C77.2602 34.7605 77.1005 34.5855 76.9839 34.3541C76.8691 34.1226 76.8117 33.8364 76.8117 33.4955V30.866H77.6164V33.3986C77.6164 33.6803 77.6944 33.9046 77.8505 34.0715C78.0066 34.2383 78.2094 34.3218 78.4588 34.3218C78.6095 34.3218 78.7593 34.2841 78.9083 34.2087C79.059 34.1334 79.1837 34.0194 79.2824 33.8669C79.3828 33.7144 79.4322 33.5206 79.4304 33.2856ZM82.1218 29.488V30.0048C82.1218 30.1573 82.0931 30.3179 82.0357 30.4865C81.98 30.6534 81.9011 30.814 81.7988 30.9683C81.6965 31.1226 81.5763 31.2554 81.4382 31.3666L81.0398 31.0813C81.1457 30.927 81.2372 30.7629 81.3144 30.5888C81.3933 30.4148 81.4328 30.2228 81.4328 30.0129V29.488H82.1218ZM82.7771 35V30.866H83.5549V31.5227H83.598C83.6734 31.3002 83.8061 31.1253 83.9963 30.9979C84.1883 30.8687 84.4054 30.8041 84.6476 30.8041C84.6979 30.8041 84.7571 30.8059 84.8253 30.8095C84.8953 30.8131 84.95 30.8176 84.9894 30.823V31.5927C84.9572 31.5837 84.8997 31.5739 84.8172 31.5631C84.7347 31.5505 84.6521 31.5443 84.5696 31.5443C84.3794 31.5443 84.2098 31.5846 84.0609 31.6654C83.9138 31.7443 83.7972 31.8547 83.711 31.9964C83.6249 32.1364 83.5819 32.2961 83.5819 32.4755V35H82.7771ZM87.3195 35.0834C86.9122 35.0834 86.5614 34.9964 86.2672 34.8224C85.9747 34.6465 85.7486 34.3998 85.589 34.0822C85.4311 33.7629 85.3521 33.3888 85.3521 32.9599C85.3521 32.5365 85.4311 32.1633 85.589 31.8403C85.7486 31.5173 85.9711 31.2653 86.2564 31.084C86.5435 30.9028 86.879 30.8122 87.263 30.8122C87.4963 30.8122 87.7223 30.8508 87.9412 30.9279C88.1601 31.0051 88.3566 31.1262 88.5306 31.2913C88.7047 31.4563 88.8419 31.6708 88.9424 31.9345C89.0429 32.1965 89.0931 32.515 89.0931 32.89V33.1752H85.807V32.5724H88.3046C88.3046 32.3606 88.2615 32.1731 88.1754 32.0099C88.0893 31.8448 87.9681 31.7147 87.812 31.6196C87.6577 31.5245 87.4765 31.477 87.2684 31.477C87.0423 31.477 86.8449 31.5326 86.6763 31.6438C86.5094 31.7533 86.3802 31.8968 86.2887 32.0745C86.199 32.2503 86.1541 32.4414 86.1541 32.6477V33.1187C86.1541 33.395 86.2026 33.6301 86.2995 33.8239C86.3982 34.0176 86.5354 34.1657 86.7113 34.2679C86.8871 34.3684 87.0925 34.4187 87.3276 34.4187C87.4801 34.4187 87.6192 34.3971 87.7448 34.3541C87.8704 34.3092 87.9789 34.2428 88.0704 34.1549C88.1619 34.067 88.2319 33.9584 88.2803 33.8292L89.042 33.9665C88.981 34.1908 88.8716 34.3873 88.7137 34.5559C88.5576 34.7228 88.3611 34.8529 88.1242 34.9462C87.8892 35.0377 87.621 35.0834 87.3195 35.0834ZM92.888 35L91.6715 30.866H92.5031L93.3132 33.9019H93.3536L94.1664 30.866H94.998L95.8055 33.8885H95.8458L96.6506 30.866H97.4822L96.2684 35H95.4475L94.6078 32.0153H94.5459L93.7062 35H92.888ZM99.9018 35.0834C99.4945 35.0834 99.1437 34.9964 98.8494 34.8224C98.557 34.6465 98.3309 34.3998 98.1712 34.0822C98.0133 33.7629 97.9344 33.3888 97.9344 32.9599C97.9344 32.5365 98.0133 32.1633 98.1712 31.8403C98.3309 31.5173 98.5534 31.2653 98.8387 31.084C99.1257 30.9028 99.4613 30.8122 99.8452 30.8122C100.078 30.8122 100.305 30.8508 100.523 30.9279C100.742 31.0051 100.939 31.1262 101.113 31.2913C101.287 31.4563 101.424 31.6708 101.525 31.9345C101.625 32.1965 101.675 32.515 101.675 32.89V33.1752H98.3892V32.5724H100.887C100.887 32.3606 100.844 32.1731 100.758 32.0099C100.671 31.8448 100.55 31.7147 100.394 31.6196C100.24 31.5245 100.059 31.477 99.8506 31.477C99.6245 31.477 99.4272 31.5326 99.2585 31.6438C99.0916 31.7533 98.9625 31.8968 98.871 32.0745C98.7812 32.2503 98.7364 32.4414 98.7364 32.6477V33.1187C98.7364 33.395 98.7848 33.6301 98.8817 33.8239C98.9804 34.0176 99.1177 34.1657 99.2935 34.2679C99.4693 34.3684 99.6748 34.4187 99.9098 34.4187C100.062 34.4187 100.201 34.3971 100.327 34.3541C100.453 34.3092 100.561 34.2428 100.653 34.1549C100.744 34.067 100.814 33.9584 100.863 33.8292L101.624 33.9665C101.563 34.1908 101.454 34.3873 101.296 34.5559C101.14 34.7228 100.943 34.8529 100.706 34.9462C100.471 35.0377 100.203 35.0834 99.9018 35.0834ZM103.373 29.488V35H102.568V29.488H103.373ZM106.197 35.0834C105.797 35.0834 105.452 34.9928 105.163 34.8116C104.876 34.6286 104.656 34.3765 104.501 34.0553C104.347 33.7342 104.27 33.3663 104.27 32.9519C104.27 32.532 104.349 32.1615 104.507 31.8403C104.665 31.5173 104.887 31.2653 105.174 31.084C105.461 30.9028 105.799 30.8122 106.189 30.8122C106.503 30.8122 106.783 30.8705 107.029 30.9871C107.274 31.102 107.473 31.2635 107.623 31.4716C107.776 31.6797 107.866 31.9228 107.895 32.201H107.112C107.069 32.0072 106.97 31.8403 106.816 31.7004C106.663 31.5604 106.459 31.4904 106.202 31.4904C105.978 31.4904 105.782 31.5496 105.613 31.6681C105.446 31.7847 105.316 31.9516 105.223 32.1687C105.129 32.384 105.083 32.6388 105.083 32.933C105.083 33.2344 105.128 33.4946 105.22 33.7135C105.311 33.9324 105.441 34.102 105.607 34.2222C105.776 34.3424 105.974 34.4025 106.202 34.4025C106.355 34.4025 106.493 34.3747 106.617 34.3191C106.742 34.2617 106.847 34.18 106.932 34.0742C107.018 33.9683 107.078 33.8409 107.112 33.692H107.895C107.866 33.9593 107.779 34.198 107.634 34.4079C107.489 34.6178 107.294 34.7829 107.05 34.9031C106.808 35.0233 106.523 35.0834 106.197 35.0834ZM110.497 35.0834C110.11 35.0834 109.771 34.9946 109.482 34.817C109.194 34.6394 108.969 34.3908 108.81 34.0715C108.65 33.7521 108.57 33.3789 108.57 32.9519C108.57 32.523 108.65 32.148 108.81 31.8269C108.969 31.5057 109.194 31.2563 109.482 31.0786C109.771 30.901 110.11 30.8122 110.497 30.8122C110.885 30.8122 111.223 30.901 111.512 31.0786C111.801 31.2563 112.025 31.5057 112.185 31.8269C112.344 32.148 112.424 32.523 112.424 32.9519C112.424 33.3789 112.344 33.7521 112.185 34.0715C112.025 34.3908 111.801 34.6394 111.512 34.817C111.223 34.9946 110.885 35.0834 110.497 35.0834ZM110.5 34.4079C110.751 34.4079 110.959 34.3415 111.124 34.2087C111.289 34.076 111.411 33.8992 111.49 33.6785C111.571 33.4578 111.611 33.2147 111.611 32.9492C111.611 32.6854 111.571 32.4432 111.49 32.2225C111.411 32 111.289 31.8215 111.124 31.6869C110.959 31.5523 110.751 31.485 110.5 31.485C110.247 31.485 110.037 31.5523 109.87 31.6869C109.705 31.8215 109.582 32 109.501 32.2225C109.422 32.4432 109.383 32.6854 109.383 32.9492C109.383 33.2147 109.422 33.4578 109.501 33.6785C109.582 33.8992 109.705 34.076 109.87 34.2087C110.037 34.3415 110.247 34.4079 110.5 34.4079ZM113.322 35V30.866H114.095V31.5389H114.146C114.232 31.311 114.373 31.1334 114.568 31.006C114.764 30.8768 114.998 30.8122 115.271 30.8122C115.547 30.8122 115.779 30.8768 115.965 31.006C116.154 31.1352 116.293 31.3128 116.382 31.5389H116.426C116.524 31.3182 116.681 31.1423 116.897 31.0114C117.112 30.8786 117.368 30.8122 117.666 30.8122C118.041 30.8122 118.347 30.9297 118.584 31.1648C118.823 31.3998 118.942 31.7542 118.942 32.2279V35H118.137V32.3032C118.137 32.0233 118.061 31.8206 117.908 31.695C117.756 31.5694 117.574 31.5066 117.362 31.5066C117.1 31.5066 116.897 31.5873 116.751 31.7488C116.606 31.9085 116.533 32.1139 116.533 32.3651V35H115.731V32.2521C115.731 32.0278 115.661 31.8475 115.521 31.7111C115.381 31.5748 115.199 31.5066 114.975 31.5066C114.822 31.5066 114.682 31.5469 114.552 31.6277C114.425 31.7066 114.322 31.817 114.243 31.9587C114.166 32.1005 114.127 32.2647 114.127 32.4513V35H113.322ZM121.802 35.0834C121.395 35.0834 121.044 34.9964 120.75 34.8224C120.457 34.6465 120.231 34.3998 120.072 34.0822C119.914 33.7629 119.835 33.3888 119.835 32.9599C119.835 32.5365 119.914 32.1633 120.072 31.8403C120.231 31.5173 120.454 31.2653 120.739 31.084C121.026 30.9028 121.362 30.8122 121.746 30.8122C121.979 30.8122 122.205 30.8508 122.424 30.9279C122.643 31.0051 122.839 31.1262 123.013 31.2913C123.187 31.4563 123.325 31.6708 123.425 31.9345C123.526 32.1965 123.576 32.515 123.576 32.89V33.1752H120.29V32.5724H122.787C122.787 32.3606 122.744 32.1731 122.658 32.0099C122.572 31.8448 122.451 31.7147 122.295 31.6196C122.14 31.5245 121.959 31.477 121.751 31.477C121.525 31.477 121.328 31.5326 121.159 31.6438C120.992 31.7533 120.863 31.8968 120.771 32.0745C120.682 32.2503 120.637 32.4414 120.637 32.6477V33.1187C120.637 33.395 120.685 33.6301 120.782 33.8239C120.881 34.0176 121.018 34.1657 121.194 34.2679C121.37 34.3684 121.575 34.4187 121.81 34.4187C121.963 34.4187 122.102 34.3971 122.227 34.3541C122.353 34.3092 122.462 34.2428 122.553 34.1549C122.645 34.067 122.715 33.9584 122.763 33.8292L123.525 33.9665C123.464 34.1908 123.354 34.3873 123.196 34.5559C123.04 34.7228 122.844 34.8529 122.607 34.9462C122.372 35.0377 122.104 35.0834 121.802 35.0834ZM128.404 30.866V31.512H126.146V30.866H128.404ZM126.752 29.8756H127.556V33.7862C127.556 33.9423 127.58 34.0598 127.626 34.1388C127.673 34.2159 127.733 34.2688 127.807 34.2975C127.882 34.3245 127.964 34.3379 128.052 34.3379C128.116 34.3379 128.173 34.3334 128.221 34.3245C128.27 34.3155 128.307 34.3083 128.334 34.3029L128.48 34.9677C128.433 34.9856 128.367 35.0036 128.28 35.0215C128.194 35.0413 128.087 35.052 127.957 35.0538C127.746 35.0574 127.548 35.0197 127.365 34.9408C127.182 34.8618 127.034 34.7398 126.921 34.5748C126.808 34.4097 126.752 34.2025 126.752 33.9531V29.8756ZM130.991 35.0834C130.604 35.0834 130.266 34.9946 129.977 34.817C129.688 34.6394 129.464 34.3908 129.304 34.0715C129.144 33.7521 129.064 33.3789 129.064 32.9519C129.064 32.523 129.144 32.148 129.304 31.8269C129.464 31.5057 129.688 31.2563 129.977 31.0786C130.266 30.901 130.604 30.8122 130.991 30.8122C131.379 30.8122 131.717 30.901 132.006 31.0786C132.295 31.2563 132.519 31.5057 132.679 31.8269C132.839 32.148 132.918 32.523 132.918 32.9519C132.918 33.3789 132.839 33.7521 132.679 34.0715C132.519 34.3908 132.295 34.6394 132.006 34.817C131.717 34.9946 131.379 35.0834 130.991 35.0834ZM130.994 34.4079C131.245 34.4079 131.453 34.3415 131.618 34.2087C131.783 34.076 131.905 33.8992 131.984 33.6785C132.065 33.4578 132.106 33.2147 132.106 32.9492C132.106 32.6854 132.065 32.4432 131.984 32.2225C131.905 32 131.783 31.8215 131.618 31.6869C131.453 31.5523 131.245 31.485 130.994 31.485C130.741 31.485 130.531 31.5523 130.364 31.6869C130.199 31.8215 130.076 32 129.996 32.2225C129.917 32.4432 129.877 32.6854 129.877 32.9492C129.877 33.2147 129.917 33.4578 129.996 33.6785C130.076 33.8992 130.199 34.076 130.364 34.2087C130.531 34.3415 130.741 34.4079 130.994 34.4079ZM135.887 35V29.488H136.692V31.5362H136.74C136.787 31.4501 136.854 31.3505 136.942 31.2374C137.03 31.1244 137.152 31.0257 137.308 30.9414C137.464 30.8553 137.67 30.8122 137.927 30.8122C138.261 30.8122 138.559 30.8965 138.821 31.0652C139.083 31.2339 139.288 31.477 139.437 31.7946C139.588 32.1121 139.663 32.4943 139.663 32.9411C139.663 33.3879 139.589 33.7709 139.44 34.0903C139.291 34.4079 139.086 34.6528 138.826 34.8251C138.566 34.9955 138.269 35.0807 137.935 35.0807C137.684 35.0807 137.478 35.0386 137.319 34.9542C137.161 34.8699 137.037 34.7712 136.947 34.6582C136.858 34.5452 136.789 34.4447 136.74 34.3568H136.673V35H135.887ZM136.676 32.933C136.676 33.2237 136.718 33.4785 136.802 33.6974C136.886 33.9163 137.008 34.0876 137.168 34.2114C137.328 34.3334 137.523 34.3944 137.755 34.3944C137.995 34.3944 138.196 34.3307 138.358 34.2033C138.519 34.0742 138.641 33.8992 138.724 33.6785C138.808 33.4578 138.85 33.2093 138.85 32.933C138.85 32.6603 138.809 32.4154 138.726 32.1983C138.646 31.9812 138.524 31.8098 138.36 31.6842C138.199 31.5586 137.997 31.4958 137.755 31.4958C137.522 31.4958 137.324 31.5559 137.163 31.6761C137.003 31.7964 136.882 31.9641 136.799 32.1794C136.717 32.3947 136.676 32.6459 136.676 32.933ZM143.185 33.2856V30.866H143.993V35H143.201V34.2841H143.158C143.063 34.5048 142.911 34.6887 142.701 34.8358C142.493 34.9812 142.233 35.0538 141.923 35.0538C141.658 35.0538 141.422 34.9955 141.218 34.8789C141.015 34.7605 140.855 34.5855 140.739 34.3541C140.624 34.1226 140.567 33.8364 140.567 33.4955V30.866H141.371V33.3986C141.371 33.6803 141.449 33.9046 141.605 34.0715C141.762 34.2383 141.964 34.3218 142.214 34.3218C142.364 34.3218 142.514 34.2841 142.663 34.2087C142.814 34.1334 142.939 34.0194 143.037 33.8669C143.138 33.7144 143.187 33.5206 143.185 33.2856ZM145.583 36.5502C145.462 36.5502 145.353 36.5404 145.254 36.5206C145.156 36.5027 145.082 36.483 145.034 36.4614L145.227 35.802C145.375 35.8415 145.506 35.8586 145.62 35.8532C145.735 35.8478 145.837 35.8047 145.924 35.724C146.014 35.6432 146.093 35.5114 146.161 35.3283L146.261 35.0538L144.748 30.866H145.61L146.657 34.0742H146.7L147.747 30.866H148.61L146.907 35.5517C146.828 35.767 146.727 35.9492 146.605 36.0981C146.483 36.2488 146.338 36.3618 146.169 36.4372C146.001 36.5126 145.805 36.5502 145.583 36.5502Z" fill="black"/>
</svg>
